<svg xmlns="http://www.w3.org/2000/svg" width="32" height="32" viewBox="0 0 32 32">
  <circle cx="16" cy="16" r="14" fill="#0c0303" stroke="#000" stroke-width="2"/>
  <path d="M16,2.5c7.2,0,13.1,5.9,13.1,13.1c0,7.2-5.9,13.1-13.1,13.1c-7.2,0-13.1-5.9-13.1-13.1C2.9,8.4,8.8,2.5,16,2.5z M21,13h-1.7c-0.5-1.6-2-2.7-3.7-2.7s-3.2,1.1-3.7,2.7H11c-1.1,0-2,0.9-2,2s0.9,2,2,2h1.7c0.5,1.6,2,2.7,3.7,2.7s3.2-1.1,3.7-2.7H21c1.1,0,2-0.9,2-2S22.1,13,21,13z M11.7,15.7c-0.8,0-1.5-0.7-1.5-1.5s0.7-1.5,1.5-1.5s1.5,0.7,1.5,1.5S12.5,15.7,11.7,15.7z M20.3,15.7c-0.8,0-1.5-0.7-1.5-1.5s0.7-1.5,1.5-1.5s1.5,0.7,1.5,1.5S21.1,15.7,20.3,15.7z M16,23c-1.9,0-3.6-1.1-4.4-2.7h8.8C19.6,21.9,17.9,23,16,23z" fill="#28ff7a"/>
  <path fill="#00bbff" d="M8.04,4.79c-0.21-0.66-0.94-1.09-1.71-0.91C2.44,4.28-0.67,11.07,0.11,17.05c0.14,0.79,0.36,1.65,1.1,1.98 c0.5,0.23,1.06,0.13,1.5-0.24c1.23-0.99,2.23-2.23,3.23-3.49c1.72-2.14,3.44-4.29,5.17-6.42c0.34-0.43,0.65-0.89,0.99-1.32 C9.42,6.43,8.45,5.62,8.04,4.79z"/>
  <path fill="#a637f5" d="M22.23,4.79c-0.41,0.83-1.38,1.64-2.46,1.95c-0.34,0.43-0.65,0.89-0.99,1.32c-1.73,2.13-3.45,4.28-5.17,6.42 c-1,1.26-2,2.5-3.23,3.49c-0.44,0.36-1,0.47-1.5,0.24c-0.74-0.33-0.96-1.19-1.1-1.98c-0.78-5.98,2.44-12.77,6.22-12.17 C21.29,3.7,22.02,4.12,22.23,4.79z"/>
  <path fill="#1127b4" d="M16,25.41c-5.5,0-9.96-4.46-9.96-9.96c0-5.5,4.46-9.96,9.96-9.96c5.5,0,9.96,4.46,9.96,9.96 C25.96,20.95,21.5,25.41,16,25.41z M16,6.78c-4.16,0-7.53,3.37-7.53,7.53c0,4.16,3.37,7.53,7.53,7.53c4.16,0,7.53-3.37,7.53-7.53 C23.53,10.15,20.16,6.78,16,6.78z"/>
</svg>
